<svg width="705" height="260" viewBox="0 0 705 260" fill="none" xmlns="http://www.w3.org/2000/svg">
<path d="M260.924 0H0V260H260.924V0Z" fill="#ECA508"/>
<path d="M84.4712 184.948V74.0122H154.968V97.336H109.264V118.45H150.73V140.195H109.264V161.467H155.127V184.948H84.4712Z" fill="#221F20"/>
<path d="M178.897 184.948C185.582 184.948 191.001 179.547 191.001 172.886C191.001 166.224 185.582 160.824 178.897 160.824C172.212 160.824 166.792 166.224 166.792 172.886C166.792 179.547 172.212 184.948 178.897 184.948Z" fill="#221F20"/>
<g style="mix-blend-mode:multiply">
<path d="M364.322 193.239C355.709 193.239 347.921 191.764 340.959 188.814C334.116 185.864 328.688 181.616 324.676 176.071C320.664 170.525 318.599 163.976 318.481 156.424H345.03C345.384 161.498 347.154 165.51 350.34 168.46C353.644 171.41 358.128 172.885 363.792 172.885C369.573 172.885 374.116 171.528 377.42 168.814C380.724 165.982 382.376 162.324 382.376 157.84C382.376 154.182 381.255 151.174 379.013 148.814C376.771 146.454 373.939 144.625 370.517 143.327C367.213 141.911 362.612 140.377 356.712 138.725C348.688 136.365 342.139 134.064 337.066 131.822C332.11 129.462 327.803 125.982 324.145 121.38C320.605 116.66 318.835 110.406 318.835 102.619C318.835 95.3028 320.664 88.931 324.322 83.5032C327.98 78.0755 333.113 73.9456 339.72 71.1137C346.328 68.1639 353.88 66.6889 362.376 66.6889C375.119 66.6889 385.444 69.8158 393.349 76.0695C401.373 82.2053 405.798 90.819 406.624 101.911H379.367C379.131 97.6627 377.302 94.1818 373.88 91.4679C370.576 88.6361 366.151 87.2201 360.606 87.2201C355.768 87.2201 351.874 88.4591 348.924 90.937C346.092 93.4149 344.676 97.0137 344.676 101.734C344.676 105.037 345.738 107.81 347.862 110.052C350.104 112.176 352.818 113.946 356.004 115.362C359.308 116.66 363.91 118.194 369.809 119.964C377.833 122.324 384.382 124.684 389.456 127.044C394.529 129.403 398.895 132.943 402.553 137.663C406.211 142.383 408.04 148.578 408.04 156.247C408.04 162.855 406.329 168.991 402.907 174.655C399.485 180.318 394.47 184.861 387.863 188.283C381.255 191.587 373.408 193.239 364.322 193.239ZM442.089 82.2643C437.723 82.2643 434.065 80.9074 431.115 78.1935C428.283 75.3616 426.867 71.8807 426.867 67.7509C426.867 63.621 428.283 60.1992 431.115 57.4853C434.065 54.6534 437.723 53.2374 442.089 53.2374C446.455 53.2374 450.053 54.6534 452.885 57.4853C455.835 60.1992 457.31 63.621 457.31 67.7509C457.31 71.8807 455.835 75.3616 452.885 78.1935C450.053 80.9074 446.455 82.2643 442.089 82.2643ZM454.301 93.9458V192H429.522V93.9458H454.301ZM517.191 92.3529C524.506 92.3529 530.937 93.8278 536.483 96.7777C542.029 99.6096 546.394 103.326 549.58 107.928V93.9458H574.536V192.708C574.536 201.794 572.707 209.876 569.05 216.956C565.392 224.154 559.905 229.818 552.589 233.947C545.273 238.195 536.424 240.319 526.04 240.319C512.117 240.319 500.671 237.074 491.704 230.584C482.854 224.095 477.839 215.245 476.659 204.036H501.261C502.559 208.519 505.332 212.059 509.58 214.655C513.946 217.369 519.196 218.726 525.332 218.726C532.53 218.726 538.371 216.543 542.855 212.177C547.338 207.929 549.58 201.44 549.58 192.708V177.487C546.394 182.088 541.97 185.923 536.306 188.991C530.76 192.059 524.388 193.593 517.191 193.593C508.931 193.593 501.379 191.469 494.535 187.221C487.692 182.973 482.264 177.015 478.252 169.345C474.358 161.557 472.411 152.649 472.411 142.619C472.411 132.707 474.358 123.917 478.252 116.247C482.264 108.577 487.633 102.678 494.358 98.5477C501.202 94.4178 508.813 92.3529 517.191 92.3529ZM549.58 142.973C549.58 136.955 548.4 131.822 546.04 127.575C543.681 123.209 540.495 119.905 536.483 117.663C532.471 115.303 528.164 114.123 523.562 114.123C518.96 114.123 514.713 115.244 510.819 117.486C506.925 119.728 503.739 123.032 501.261 127.398C498.901 131.645 497.721 136.719 497.721 142.619C497.721 148.519 498.901 153.71 501.261 158.194C503.739 162.56 506.925 165.923 510.819 168.283C514.831 170.643 519.078 171.823 523.562 171.823C528.164 171.823 532.471 170.702 536.483 168.46C540.495 166.1 543.681 162.796 546.04 158.548C548.4 154.182 549.58 148.991 549.58 142.973ZM653.074 92.5299C664.756 92.5299 674.195 96.2468 681.393 103.68C688.591 110.996 692.19 121.262 692.19 134.477V192H667.411V137.84C667.411 130.052 665.464 124.094 661.57 119.964C657.676 115.716 652.366 113.592 645.641 113.592C638.797 113.592 633.369 115.716 629.357 119.964C625.463 124.094 623.516 130.052 623.516 137.84V192H598.737V93.9458H623.516V106.158C626.82 101.911 631.009 98.6067 636.083 96.2468C641.275 93.7688 646.938 92.5299 653.074 92.5299Z" fill="black"/>
</g>
</svg>
